<?xml version="1.0" encoding="utf-8"?><svg xmlns="http://www.w3.org/2000/svg" xmlns:xlink="http://www.w3.org/1999/xlink"><symbol viewBox="0 0 26.9 32" id="apple" xmlns="http://www.w3.org/2000/svg"><path fill="currentColor" d="M26.31 24.91A17.13 17.13 0 0124.6 28a15.71 15.71 0 01-2.22 2.68A4.4 4.4 0 0119.54 32a7.3 7.3 0 01-2.62-.63 7.62 7.62 0 00-2.83-.64 7.74 7.74 0 00-2.9.64 8.76 8.76 0 01-2.5.67 4.1 4.1 0 01-2.91-1.29A16.93 16.93 0 013.47 28 19.3 19.3 0 011 23.08a17.73 17.73 0 01-1-5.81 10.55 10.55 0 011.38-5.54 8 8 0 016.85-4.05 9.27 9.27 0 013 .71 9.8 9.8 0 002.41.71 14.94 14.94 0 002.68-.83A9.07 9.07 0 0120 7.62a7.76 7.76 0 016.06 3.2 6.73 6.73 0 00-3.58 6.12A6.83 6.83 0 0024.69 22a7.79 7.79 0 002.21 1.46c-.21.47-.39 1-.59 1.42zM20.13.63a6.85 6.85 0 01-1.75 4.48 6 6 0 01-5 2.45 5.86 5.86 0 010-.61 7 7 0 011.86-4.52 7.26 7.26 0 012.25-1.7A6.62 6.62 0 0120.07 0a2.32 2.32 0 01.06.63z"/></symbol><symbol viewBox="0 0 14 17" fill="currentColor" id="arrow-down-o" xmlns="http://www.w3.org/2000/svg"><path fill-rule="evenodd" clip-rule="evenodd" d="M7.915.5v13.986l5.216-5.159.752.744-6.5 6.429-6.5-6.429.752-.744 5.216 5.159V.5h1.064z"/></symbol><symbol viewBox="0 0 33.33 25" id="arrow-left-o" xmlns="http://www.w3.org/2000/svg"><path fill="none" stroke="currentColor" stroke-miterlimit="10" stroke-width="4" d="M33.33 12.5H3.17m13.16 11l-13.16-11L16.33 1.55"/></symbol><symbol fill="currentColor" viewBox="0 0 16 13" id="arrow-right-o" xmlns="http://www.w3.org/2000/svg"><path fill-rule="evenodd" clip-rule="evenodd" d="M9.473.883l6.027 6-6.027 6-.698-.694 4.837-4.815H.5v-.982h13.112L8.775 1.577l.698-.694z"/></symbol><symbol fill="currentColor" viewBox="0 0 14 14" id="arrow-right-top-o" xmlns="http://www.w3.org/2000/svg"><path fill-rule="evenodd" clip-rule="evenodd" d="M3.809 1.547h8.641v8.641h-1V3.254l-9.4 9.4-.706-.708 9.4-9.4H3.808v-1z"/></symbol><symbol viewBox="0 0 25 33.33" id="arrow-up-o" xmlns="http://www.w3.org/2000/svg"><path fill="none" stroke="currentColor" stroke-miterlimit="10" stroke-width="4" d="M12.5 33.33V3.17M1.55 16.33l11-13.16 11 13.16"/></symbol><symbol viewBox="0 0 32 24" id="check-o" xmlns="http://www.w3.org/2000/svg"><path fill="none" stroke="currentColor" stroke-miterlimit="10" d="M1.45 11.85l9.28 9.25L30.55 1.5"/></symbol><symbol viewBox="0 0 18 10" stroke="currentColor" id="chevron-down-o" xmlns="http://www.w3.org/2000/svg"><path d="M.983.29l7.81 7.647L16.603.29l.69.676-8.5 8.324L.293.965.983.29z"/></symbol><symbol viewBox="0 0 19.28 32" id="chevron-left-o" xmlns="http://www.w3.org/2000/svg"><path fill="none" stroke="currentColor" stroke-miterlimit="10" stroke-width="4" d="M17.88 1.5l-15 14.37 15 14.63"/></symbol><symbol viewBox="0 0 19.28 32" id="chevron-right-o" xmlns="http://www.w3.org/2000/svg"><path fill="none" stroke="currentColor" stroke-miterlimit="10" stroke-width="4" d="M1.4 30.5l15-14.63L1.4 1.5"/></symbol><symbol viewBox="0 0 32 19.28" id="chevron-up-o" xmlns="http://www.w3.org/2000/svg"><path fill="none" stroke="currentColor" stroke-miterlimit="10" stroke-width="4" d="M30.5 17.88l-14.37-15-14.63 15"/></symbol><symbol viewBox="0 0 30 30" id="discord" xmlns="http://www.w3.org/2000/svg"><path fill-rule="evenodd" clip-rule="evenodd" d="M19.72 23.264c.667.815 1.468 1.736 1.468 1.736 4.92-.15 6.812-3.257 6.812-3.257 0-6.9-3.206-12.493-3.206-12.493C21.59 6.936 18.54 7 18.54 7l-.311.343c3.784 1.114 5.542 2.721 5.542 2.721a18.652 18.652 0 00-6.7-2.057 19.561 19.561 0 00-4.496.043c-.117 0-.217.016-.329.035l-.05.008c-.779.064-2.671.343-5.053 1.35-.824.364-1.313.621-1.313.621s1.847-1.692 5.854-2.807L11.461 7s-3.05-.064-6.256 2.25c0 0-3.205 5.593-3.205 12.493 0 0 1.87 3.107 6.79 3.257 0 0 .823-.964 1.49-1.779-2.826-.814-3.895-2.528-3.895-2.528s.223.15.624.364a.903.903 0 00.19.118 13.294 13.294 0 001.725.782c.912.343 2.002.686 3.271.922 1.67.3 3.629.407 5.766.021a15.082 15.082 0 003.227-.921c.78-.279 1.648-.686 2.56-1.265 0 0-1.113 1.758-4.029 2.55zM8.566 17.372c0-1.308 1.002-2.379 2.27-2.379 1.27 0 2.293 1.071 2.27 2.379 0 1.307-1 2.378-2.27 2.378-1.246 0-2.27-1.071-2.27-2.378zm8.125 0c0-1.308 1.002-2.379 2.27-2.379 1.27 0 2.27 1.071 2.27 2.379 0 1.307-1 2.378-2.27 2.378-1.246 0-2.27-1.071-2.27-2.378z"/></symbol><symbol fill="none" viewBox="0 0 30 30" id="drag" xmlns="http://www.w3.org/2000/svg"><path d="M.385 15.364a.5.5 0 010-.728l7.022-6.633a.5.5 0 01.843.363v13.268a.5.5 0 01-.843.363L.385 15.364zM29.615 14.636a.5.5 0 010 .728l-7.022 6.633a.5.5 0 01-.843-.363V8.366a.5.5 0 01.843-.363l7.022 6.633z" fill="#0F0F17"/></symbol><symbol viewBox="0 0 32 32" id="dribbble" xmlns="http://www.w3.org/2000/svg"><path fill="currentColor" d="M16 0a16 16 0 1016 16A16 16 0 0016 0zm10.43 7.55a13.38 13.38 0 013 8 22.6 22.6 0 00-9-.09c-.48-1.12-1-2.2-1.48-3.21a26.68 26.68 0 007.48-4.7zm-1.81-1.84A23.78 23.78 0 0117.75 10a62.59 62.59 0 00-4.55-7.14 13.57 13.57 0 012.8-.29 13.35 13.35 0 018.62 3.14zm-14-2a60.23 60.23 0 014.68 7.22 42.76 42.76 0 01-12.36 1.94 13.5 13.5 0 017.67-9.17zm-8 11.75h.08a46.59 46.59 0 008.14-.75 39.89 39.89 0 005.7-1.47c.47.92.93 1.9 1.38 2.93a24 24 0 00-6.28 3.11 28.44 28.44 0 00-5.84 5.4A13.35 13.35 0 012.57 16l.01-.55zm5 11a25.86 25.86 0 015.52-5.13 21.88 21.88 0 015.72-2.82 49.37 49.37 0 012.7 9.7A13.21 13.21 0 0116 29.43a13.35 13.35 0 01-8.39-2.96zm16.31.37a53.48 53.48 0 00-2.53-8.92 20.31 20.31 0 017.86.26 13.46 13.46 0 01-5.34 8.67z"/></symbol><symbol viewBox="0 0 22 22" fill="currentColor" id="earth" xmlns="http://www.w3.org/2000/svg"><path fill-rule="evenodd" clip-rule="evenodd" d="M11 21c5.523 0 10-4.477 10-10S16.523 1 11 1 1 5.477 1 11s4.477 10 10 10zm0 1c6.075 0 11-4.925 11-11S17.075 0 11 0 0 4.925 0 11s4.925 11 11 11z"/><path fill-rule="evenodd" clip-rule="evenodd" d="M13.284 20.901C12.687 21.531 11.915 22 11 22c-.916 0-1.687-.468-2.284-1.099-.594-.628-1.083-1.484-1.473-2.459C6.461 16.488 6 13.856 6 11s.461-5.488 1.243-7.442c.39-.975.88-1.83 1.473-2.46C9.313.469 10.084 0 11 0c.916 0 1.687.468 2.284 1.099.594.628 1.083 1.484 1.473 2.459C15.539 5.512 16 8.144 16 11s-.461 5.488-1.243 7.442c-.39.975-.88 1.83-1.473 2.46zM11 21c2.21 0 4-4.477 4-10S13.21 1 11 1 7 5.477 7 11s1.79 10 4 10z"/><path fill-rule="evenodd" clip-rule="evenodd" d="M1.099 13.284C.469 12.687 0 11.915 0 11c0-.916.468-1.687 1.099-2.284.628-.594 1.484-1.083 2.459-1.473C5.512 6.461 8.144 6 11 6s5.488.461 7.442 1.243c.975.39 1.83.88 2.46 1.473C21.531 9.313 22 10.084 22 11c0 .916-.468 1.687-1.099 2.284-.628.594-1.484 1.083-2.459 1.473C16.488 15.539 13.856 16 11 16s-5.488-.461-7.442-1.243c-.975-.39-1.83-.88-2.46-1.473zM1 11c0 2.21 4.477 4 10 4s10-1.79 10-4-4.477-4-10-4S1 8.79 1 11z"/></symbol><symbol fill="currentColor" viewBox="0 0 30 30" id="facebook" xmlns="http://www.w3.org/2000/svg"><path d="M10.276 15.652h2.192v9.025c0 .179.144.323.323.323h3.717a.323.323 0 00.322-.323v-8.982h2.52a.323.323 0 00.321-.286l.383-3.323a.323.323 0 00-.32-.36H16.83V9.645c0-.628.339-.947 1.005-.947h1.898a.323.323 0 00.323-.322v-3.05a.323.323 0 00-.323-.323h-2.615L16.998 5c-.454 0-2.032.09-3.278 1.236-1.38 1.27-1.189 2.791-1.143 3.055v2.435h-2.301a.323.323 0 00-.323.323v3.28c0 .178.145.323.323.323z"/></symbol><symbol viewBox="0 0 32 32" id="github" xmlns="http://www.w3.org/2000/svg"><path fill="currentColor" d="M16.05 0A16.22 16.22 0 000 16.43 16.38 16.38 0 0011 32c.86.11 1.07-.33 1.07-.76v-2.87c-4.49 1-5.45-2.19-5.45-2.19a4.63 4.63 0 00-1.82-2.41c-1.5-1 .1-1 .1-1a3.37 3.37 0 012.46 1.65c1.4 2.51 3.75 1.75 4.71 1.31a3.05 3.05 0 011.07-2.19c-3.53-.44-7.27-1.86-7.27-8.11a6.64 6.64 0 011.6-4.38 5.84 5.84 0 01.13-4.37S9 6.24 12 8.32a16.92 16.92 0 014.06-.54 17 17 0 014.07.54c3.1-2.08 4.39-1.64 4.39-1.64a5.82 5.82 0 01.1 4.38 6.13 6.13 0 011.61 4.38c0 6.36-3.75 7.67-7.28 8.11A4.25 4.25 0 0120 26.62v4.49a.77.77 0 001.07.76A16.29 16.29 0 0032 16.32 16 16 0 0016.05 0z"/></symbol><symbol viewBox="0 0 29 32" id="google-play" xmlns="http://www.w3.org/2000/svg"><path fill="currentColor" d="M.75 31.55l13.88-14 4.9 4.94L3 31.74a2 2 0 01-2 0zm12.48-15.41L0 29.49V2.79zm8.27-5.52l6.5 3.63a2 2 0 010 3.5l-6.64 3.73L16 16.14zM.61.58A1.78 1.78 0 011 .27a2 2 0 012 0l16.7 9.34-5.07 5.12z"/></symbol><symbol viewBox="0 0 32 32" id="instagram" xmlns="http://www.w3.org/2000/svg"><path fill="currentColor" d="M3 10v12a7.07 7.07 0 007 7h12a7.07 7.07 0 007-7V10a7.07 7.07 0 00-7-7H10a7.07 7.07 0 00-7 7zm-3 0A9.81 9.81 0 0110 0h12a9.81 9.81 0 0110 10v12a9.81 9.81 0 01-10 10H10A9.81 9.81 0 010 22zm16 10.71A4.71 4.71 0 1011.29 16 4.66 4.66 0 0016 20.71zm0 2.82A7.53 7.53 0 1123.53 16 7.55 7.55 0 0116 23.53zm9.41-15.06a1.88 1.88 0 01-3.76 0 1.88 1.88 0 113.76 0z"/></symbol><symbol viewBox="0 0 24 24" id="link" xmlns="http://www.w3.org/2000/svg"><path d="M10.59 13.41c.41.39.41 1.03 0 1.42-.39.39-1.03.39-1.42 0a5.003 5.003 0 010-7.07l3.54-3.54a5.003 5.003 0 017.07 0 5.003 5.003 0 010 7.07l-1.49 1.49c.01-.82-.12-1.64-.4-2.42l.47-.48a2.982 2.982 0 000-4.24 2.982 2.982 0 00-4.24 0l-3.53 3.53a2.982 2.982 0 000 4.24m2.82-4.24c.39-.39 1.03-.39 1.42 0a5.003 5.003 0 010 7.07l-3.54 3.54a5.003 5.003 0 01-7.07 0 5.003 5.003 0 010-7.07l1.49-1.49c-.01.82.12 1.64.4 2.43l-.47.47a2.982 2.982 0 000 4.24 2.982 2.982 0 004.24 0l3.53-3.53a2.982 2.982 0 000-4.24.973.973 0 010-1.42z"/></symbol><symbol viewBox="0 0 32 30.48" id="linkedin" xmlns="http://www.w3.org/2000/svg"><path fill="currentColor" d="M9.725 25H5.263V10.956h4.462V25zM7.494 8.988C6.05 8.988 5 7.938 5 6.494 5 5.05 6.181 4 7.494 4c1.444 0 2.494 1.05 2.494 2.494 0 1.444-1.05 2.494-2.494 2.494zM26 25h-4.462v-7.613c0-2.23-.92-2.887-2.232-2.887-1.312 0-2.625 1.05-2.625 3.019V25H12.22V10.956h4.2v1.969c.393-.919 1.968-2.363 4.2-2.363 2.494 0 5.119 1.444 5.119 5.775V25H26z"/></symbol>
<symbol fill="currentColor" viewBox="0 0 51 45" id="logo" xmlns="http://www.w3.org/2000/svg">
<path fill-rule="evenodd" clip-rule="evenodd" d="M9.832.171a1.277 1.277 0 011.277 0l15.029 8.667c.395.228.639.65.639 1.106v10.732a1.277 1.277 0 01-2.554 0v-9.994L11.748 3.488v25.876a1.277 1.277 0 01-2.554 0V1.277c0-.456.243-.878.638-1.106z"/><path fill-rule="evenodd" clip-rule="evenodd" d="M41.167.171c.395.228.638.65.638 1.106v28.087a1.277 1.277 0 01-2.554 0V3.488l-12.474 7.194v9.994a1.277 1.277 0 01-2.554 0V9.944c0-.456.244-.878.639-1.106L39.89.17a1.277 1.277 0 011.277 0z"/><path fill-rule="evenodd" clip-rule="evenodd" d="M5.432 21.48a1.277 1.277 0 01-.014 1.806c-1.852 1.824-2.864 4.006-2.864 6.083 0 2.076 1.012 4.258 2.864 6.082l.014.015c1.813 1.842 4.756 3.602 8.36 4.803 3.596 1.199 7.8 1.823 11.703 1.808h.01c3.902.015 8.106-.61 11.703-1.808 3.604-1.201 6.547-2.962 8.36-4.803a.95.95 0 01.014-.015c1.852-1.824 2.864-4.006 2.864-6.082 0-2.077-1.012-4.259-2.864-6.083a1.277 1.277 0 011.792-1.82C49.597 23.656 51 26.46 51 29.37c0 2.906-1.4 5.707-3.619 7.895-2.168 2.2-5.495 4.137-9.365 5.428-3.882 1.293-8.362 1.955-12.516 1.939-4.154.016-8.634-.645-12.516-1.94-3.87-1.29-7.197-3.227-9.365-5.427C1.4 35.076 0 32.274 0 29.37c0-2.91 1.403-5.714 3.626-7.903a1.277 1.277 0 011.806.014z"/></symbol>
<symbol viewBox="0 0 12 32" id="long-arrow-down-o" xmlns="http://www.w3.org/2000/svg"><path fill="none" stroke="currentColor" stroke-miterlimit="10" d="M11.67 26.28L6 31.33l-5.67-5M6 0v31.32"/></symbol><symbol viewBox="0 0 32 12" id="long-arrow-left-o" xmlns="http://www.w3.org/2000/svg"><path fill="none" stroke="currentColor" stroke-miterlimit="10" d="M5.67 11.67L.67 6 5.72.33M.68 6H32"/></symbol><symbol viewBox="0 0 32 12" id="long-arrow-right-o" xmlns="http://www.w3.org/2000/svg"><path fill="none" stroke="currentColor" stroke-miterlimit="10" d="M26.28.33l5 5.67-5 5.67M0 6h31.32"/></symbol><symbol viewBox="0 0 12 32" id="long-arrow-up-o" xmlns="http://www.w3.org/2000/svg"><path fill="none" stroke="currentColor" stroke-miterlimit="10" d="M.33 5.67L6 .67l5.67 5.05M6 .68V32"/></symbol><symbol viewBox="0 0 32 32" id="medium" xmlns="http://www.w3.org/2000/svg"><path fill="currentColor" d="M0 0v32h32V0zm26.73 7.53L25 9.22a.7.7 0 00-.19.57v12.05a.69.69 0 00.19.56l1.69 1.69v.38h-8.62v-.38l1.69-1.69c.19-.19.19-.19.19-.56v-10l-4.89 12.25h-.57L8.85 11.86v8.28c0 .38 0 .75.37.94l2.26 2.83v.37h-6.4v-.37l2.26-2.83a1.42 1.42 0 00.38-.94v-9.41a1.1 1.1 0 00-.19-.73L5.27 7.53v-.38h6.21l4.9 10.54 4.33-10.54h6z"/></symbol><symbol viewBox="0 0 20 20" fill="currentColor" id="repost" xmlns="http://www.w3.org/2000/svg"><path d="M12 6.042V2l7 7.074-7 7.073v-4.143c-5 0-8.5 1.617-11 5.154C2 12.105 5 7.053 12 6.042z"/></symbol><symbol fill="currentColor" viewBox="0 0 30 30" id="telegram" xmlns="http://www.w3.org/2000/svg"><path d="M3.512 14.749c5.906-2.54 9.844-4.215 11.814-5.024 5.626-2.31 6.795-2.711 7.557-2.725.168-.003.542.038.785.233.205.164.261.386.288.541.027.156.06.51.034.788-.305 3.162-1.624 10.837-2.295 14.379-.284 1.498-.843 2-1.384 2.05-1.177.107-2.07-.767-3.21-1.505-1.782-1.154-2.79-1.872-4.52-2.998-2-1.301-.704-2.016.436-3.185.298-.306 5.482-4.96 5.582-5.383.012-.053.024-.25-.094-.354-.119-.103-.294-.068-.42-.04-.179.04-3.027 1.9-8.545 5.576-.808.548-1.54.815-2.197.802-.723-.016-2.114-.404-3.149-.736-1.268-.407-2.276-.623-2.189-1.314.046-.36.548-.728 1.507-1.105z"/></symbol><symbol viewBox="0 0 17 20" id="tiktok" xmlns="http://www.w3.org/2000/svg"><path fill="currentColor" d="M14.88 4.28L14.5 4a5.46 5.46 0 01-1-.86 4.81 4.81 0 01-1.11-2.3 3 3 0 010-.84H9v13.87a3 3 0 01-.44 1.34 2.89 2.89 0 01-1 1 2.77 2.77 0 01-1.39.38 2.92 2.92 0 010-5.83 2.77 2.77 0 01.87.14V7.41a6.14 6.14 0 00-2.56.2 6.22 6.22 0 00-2.29 1.24 6.72 6.72 0 00-1.44 1.82A6.38 6.38 0 000 13.55a6.93 6.93 0 00.36 2.28 6.76 6.76 0 00.91 1.7 6.9 6.9 0 001.46 1.4A6.21 6.21 0 006.19 20a6 6 0 002.55-.58 6.43 6.43 0 002.07-1.59 6.63 6.63 0 001.13-1.91 7.29 7.29 0 00.41-2.19v-7l.59.39a7.71 7.71 0 002 .85 11.35 11.35 0 002.06.24V4.8a4.3 4.3 0 01-2.12-.52z"/></symbol><symbol fill="none" viewBox="0 0 17 17" id="times-o" xmlns="http://www.w3.org/2000/svg"><path d="M15.85 1L8.424 8.425m0 0L1 15.849m7.425-7.424l7.424 7.424M8.425 8.425L1 1" stroke="#fff"/></symbol><symbol fill="currentColor" viewBox="0 0 30 30" id="twitter" xmlns="http://www.w3.org/2000/svg"><path d="M27 8.077c-.863.415-1.725.554-2.731.692 1.006-.554 1.725-1.384 2.012-2.492-.862.554-1.868.83-3.018 1.108A5.118 5.118 0 0019.813 6c-3.02 0-5.32 2.77-4.6 5.539C11.33 11.4 7.88 9.6 5.438 6.83c-1.294 2.077-.575 4.708 1.437 6.092-.719 0-1.438-.277-2.156-.554 0 2.077 1.581 4.016 3.737 4.57-.718.138-1.437.276-2.156.138.575 1.8 2.3 3.184 4.456 3.184C9.031 21.509 6.444 22.2 4 21.924 6.156 23.17 8.6 24 11.188 24c8.768 0 13.656-7.061 13.368-13.57A6.526 6.526 0 0027 8.078z"/></symbol><symbol fill="currentColor" viewBox="0 0 30 30" id="youtube" xmlns="http://www.w3.org/2000/svg"><path d="M26.4 9.58c-.3-1.062-1.05-1.821-2.1-2.125C22.5 7 14.85 7 14.85 7s-7.5 0-9.45.455C4.35 7.76 3.6 8.518 3.3 9.58 3 11.554 3 15.5 3 15.5s0 3.946.45 5.92c.3 1.062 1.05 1.821 2.1 2.125C7.35 24 15 24 15 24s7.5 0 9.45-.455c1.05-.304 1.8-1.063 2.1-2.125.45-1.974.45-5.92.45-5.92s0-3.946-.6-5.92zm-13.8 9.563v-7.286l6.3 3.643-6.3 3.643z"/></symbol></svg>